<svg width="237" height="236" viewBox="0 0 237 236" fill="none" xmlns="http://www.w3.org/2000/svg">
<circle cx="118" cy="118" r="118" fill="#1E1E1E"/>
<mask id="mask0_939_699" style="mask-type:alpha" maskUnits="userSpaceOnUse" x="1" y="0" width="236" height="236">
<circle cx="119" cy="118" r="118" fill="#55E748"/>
</mask>
<g mask="url(#mask0_939_699)">
<path d="M220.998 235.902C220.998 235.906 220.998 235.91 220.998 235.915H221V203.433C221 201.207 219.324 199.331 217.11 199.096C208.106 198.139 198.932 197.824 189.742 198.166C189.646 198.17 189.548 198.171 189.452 198.175C172.078 198.85 155.414 201.856 139.862 206.829C139.857 206.826 139.851 206.824 139.845 206.821C137.914 207.438 136.001 208.087 134.105 208.765C146.326 209.828 158.122 211.764 169.337 214.479C169.342 214.477 169.348 214.475 169.354 214.473C179.474 216.922 189.119 220.002 198.179 223.642C198.185 223.65 198.191 223.658 198.197 223.666C205.852 226.743 213.094 230.214 219.843 234.045C220.606 234.478 220.967 235.186 220.998 235.902Z" fill="#FFCE9B"/>
<path d="M220.998 235.902C220.998 235.906 220.997 235.91 220.998 235.915H221V224.21C215.901 221.455 210.516 218.889 204.921 216.555L204.888 216.509C194.794 212.454 186.996 209.676 172.191 206.094L172.152 206.107C166.397 204.779 160.539 203.675 154.605 202.79C149.593 203.941 144.674 205.29 139.862 206.829C139.857 206.826 139.851 206.824 139.845 206.822C137.914 207.439 136.001 208.087 134.105 208.766C146.326 209.828 158.122 211.764 169.337 214.479C169.342 214.477 169.348 214.476 169.354 214.473C179.474 216.922 189.119 220.002 198.179 223.642C198.185 223.65 198.191 223.658 198.197 223.666C205.852 226.743 213.093 230.214 219.842 234.044C220.605 234.478 220.967 235.186 220.998 235.902Z" fill="#FFB181"/>
<path d="M46.9223 180.957H56.166C56.8573 180.957 57.4175 181.518 57.4175 182.209C57.4175 192.297 57.4175 215.991 57.4175 218.801C60.0583 218.049 62.733 217.337 65.4492 216.68C65.4547 216.682 65.4603 216.684 65.4659 216.686C71.9907 215.106 78.7258 213.808 85.6343 212.81C85.6343 211.564 85.6343 156.102 85.6343 157.509C85.6343 156.328 86.5922 155.37 87.7735 155.37H98.3703C106.834 155.37 113.695 148.509 113.695 140.046V120.265C113.695 115.814 110.233 112.022 105.784 111.864C101.114 111.699 97.2754 115.435 97.2754 120.069V136.911C97.2754 138.038 96.3622 138.951 95.2358 138.951H87.7883C86.5985 138.951 85.6339 137.986 85.6339 136.796V98.5768C85.6339 90.6659 79.1597 84.0411 71.2504 84.1925C63.5857 84.3391 57.4171 90.5985 57.4171 98.2983V163.169C57.4171 163.925 56.8043 164.538 56.0481 164.538H49.5504C48.7037 164.538 48.0172 163.851 48.0172 163.005V145.852C48.0172 141.4 44.5556 137.609 40.1067 137.451C35.4362 137.285 31.5977 141.022 31.5977 145.656V165.633C31.5977 174.096 38.4587 180.957 46.9223 180.957Z" fill="#29B288"/>
<path d="M95.9981 138.951H103.446C104.572 138.951 105.485 138.038 105.485 136.911V120.068C105.485 117.038 107.132 114.4 109.575 112.977C108.456 112.314 107.168 111.913 105.785 111.863C101.114 111.698 97.2755 115.434 97.2755 120.068V136.911C97.2755 137.907 96.5611 138.734 95.6172 138.912C95.7411 138.935 95.8674 138.951 95.9981 138.951Z" fill="#21A378"/>
<path d="M64.258 164.538C65.0143 164.538 65.6271 163.925 65.6271 163.169V98.2983C65.6271 91.9484 69.8234 86.5823 75.5932 84.812C74.2214 84.3841 72.7623 84.1637 71.2506 84.1924C63.5859 84.3391 57.4173 90.5981 57.4173 98.2983C57.4173 167.468 57.6767 163.641 56.875 164.254C57.4093 164.633 57.1742 164.538 64.258 164.538Z" fill="#21A378"/>
<path d="M65.6254 182.209C65.6254 181.517 65.0652 180.957 64.3739 180.957H56.1641C56.8554 180.957 57.4156 181.517 57.4156 182.209C57.4156 192.297 57.4156 215.991 57.4156 218.801C60.0564 218.049 62.7311 217.337 65.4473 216.68C65.4528 216.682 65.4584 216.684 65.464 216.686C65.5178 216.672 65.572 216.66 65.6258 216.647C65.6254 212.935 65.6254 186.623 65.6254 182.209Z" fill="#21A378"/>
<path d="M39.8075 165.633V145.655C39.8075 142.625 41.4546 139.987 43.897 138.564C42.7786 137.901 41.4905 137.5 40.1067 137.451C35.4362 137.285 31.5977 141.022 31.5977 145.655V165.633C31.5977 174.096 38.4587 180.957 46.9224 180.957H55.1322C46.6686 180.957 39.8075 174.096 39.8075 165.633Z" fill="#21A378"/>
<path d="M173.477 105.435C187.237 105.435 198.391 94.2805 198.391 80.5207C198.391 66.761 187.237 55.6064 173.477 55.6064C159.717 55.6064 148.562 66.761 148.562 80.5207C148.562 94.2805 159.717 105.435 173.477 105.435Z" fill="#FAC149"/>
<path d="M156.56 80.5211C156.56 68.1225 165.618 57.8432 177.476 55.9295C176.174 55.7195 174.839 55.606 173.478 55.606C159.718 55.606 148.562 66.7606 148.562 80.5211C148.562 95.7928 162.222 107.574 177.476 105.113C165.618 103.199 156.56 92.9196 156.56 80.5211Z" fill="#F8A748"/>
<path d="M173.478 45.8127C171.803 45.8127 170.445 44.4548 170.445 42.7798V36.0327C170.445 34.3576 171.803 32.9998 173.478 32.9998C175.153 32.9998 176.511 34.3576 176.511 36.0327V42.7798C176.511 44.4548 175.153 45.8127 173.478 45.8127Z" fill="#FAC149"/>
<path d="M173.478 128.041C171.803 128.041 170.445 126.684 170.445 125.009V118.261C170.445 116.586 171.803 115.229 173.478 115.229C175.153 115.229 176.511 116.586 176.511 118.261V125.009C176.511 126.684 175.153 128.041 173.478 128.041Z" fill="#FAC149"/>
<path d="M154.609 50.8697C153.561 50.8697 152.541 50.3258 151.98 49.3528L148.606 43.5097C147.769 42.059 148.265 40.2043 149.716 39.3668C151.166 38.5289 153.022 39.0261 153.859 40.4768L157.233 46.3199C158.07 47.7706 157.573 49.6253 156.123 50.4629C155.645 50.7386 155.124 50.8697 154.609 50.8697Z" fill="#FAC149"/>
<path d="M195.726 122.082C194.678 122.082 193.659 121.538 193.097 120.565L189.723 114.722C188.886 113.271 189.383 111.416 190.833 110.579C192.284 109.741 194.139 110.239 194.976 111.689L198.35 117.532C199.187 118.983 198.691 120.837 197.24 121.675C196.762 121.951 196.241 122.082 195.726 122.082Z" fill="#FAC149"/>
<path d="M140.792 64.6838C140.277 64.6838 139.756 64.5528 139.278 64.277L133.435 60.9035C131.984 60.0659 131.487 58.2112 132.325 56.7605C133.162 55.3098 135.017 54.8126 136.468 55.6505L142.311 59.024C143.761 59.8615 144.258 61.7163 143.421 63.167C142.859 64.1396 141.839 64.6838 140.792 64.6838Z" fill="#FAC149"/>
<path d="M212.003 105.798C211.488 105.798 210.967 105.667 210.489 105.391L204.646 102.018C203.195 101.18 202.698 99.3255 203.536 97.8748C204.373 96.4241 206.228 95.9268 207.679 96.7647L213.522 100.138C214.973 100.976 215.469 102.831 214.632 104.281C214.07 105.254 213.05 105.798 212.003 105.798Z" fill="#FAC149"/>
<path d="M135.737 83.5534H128.99C127.315 83.5534 125.957 82.1955 125.957 80.5205C125.957 78.8454 127.315 77.4875 128.99 77.4875H135.737C137.412 77.4875 138.77 78.8454 138.77 80.5205C138.77 82.1955 137.412 83.5534 135.737 83.5534Z" fill="#FAC149"/>
<path d="M217.968 83.5534H211.22C209.545 83.5534 208.188 82.1955 208.188 80.5205C208.188 78.8454 209.545 77.4875 211.22 77.4875H217.968C219.643 77.4875 221 78.8454 221 80.5205C221 82.1955 219.643 83.5534 217.968 83.5534Z" fill="#FAC149"/>
<path d="M134.954 105.798C133.906 105.798 132.887 105.254 132.325 104.281C131.487 102.83 131.984 100.976 133.435 100.138L139.278 96.7645C140.728 95.927 142.583 96.4239 143.421 97.8746C144.258 99.3253 143.761 101.18 142.311 102.018L136.468 105.391C135.99 105.667 135.469 105.798 134.954 105.798Z" fill="#FAC149"/>
<path d="M206.165 64.6839C205.117 64.6839 204.098 64.14 203.536 63.1671C202.698 61.7163 203.195 59.8616 204.646 59.0241L210.489 55.6505C211.939 54.813 213.794 55.3099 214.632 56.7606C215.469 58.2113 214.973 60.066 213.522 60.9035L207.679 64.2771C207.201 64.5528 206.679 64.6839 206.165 64.6839Z" fill="#FAC149"/>
<path d="M151.23 122.082C150.715 122.082 150.194 121.951 149.716 121.675C148.265 120.837 147.769 118.983 148.606 117.532L151.98 111.689C152.817 110.239 154.672 109.74 156.123 110.579C157.573 111.416 158.07 113.271 157.233 114.722L153.859 120.565C153.298 121.537 152.278 122.082 151.23 122.082Z" fill="#FAC149"/>
<path d="M192.347 50.8697C191.833 50.8697 191.311 50.7386 190.833 50.4629C189.383 49.6253 188.886 47.7706 189.723 46.3199L193.097 40.4768C193.934 39.0261 195.789 38.5289 197.24 39.3668C198.691 40.2043 199.187 42.059 198.35 43.5097L194.976 49.3528C194.414 50.3254 193.395 50.8697 192.347 50.8697Z" fill="#FAC149"/>
<path d="M220.997 234.73C220.968 234.058 220.63 233.394 219.914 232.988C213.583 229.395 206.789 226.139 199.608 223.251C199.603 223.243 199.597 223.236 199.591 223.228C191.092 219.814 182.044 216.924 172.55 214.627C172.545 214.629 172.539 214.631 172.534 214.633C138.111 206.299 99.9096 206.294 65.4648 214.633C65.4592 214.631 65.4536 214.629 65.448 214.627C55.9553 216.924 46.9072 219.814 38.4074 223.228C38.4018 223.236 38.3958 223.243 38.3902 223.251C31.2092 226.138 24.4163 229.395 18.0848 232.988C17.3688 233.394 17.0297 234.058 17.0014 234.73C16.9612 235.855 17.7839 236.997 19.1629 236.997H218.835C220.214 236.997 221.037 235.855 220.997 234.73Z" fill="#FFCE9B"/>
<path d="M34.5043 232.988C40.8355 229.395 47.6288 226.138 54.8098 223.251C54.8154 223.244 54.8214 223.236 54.8269 223.228C63.3264 219.814 72.3744 216.924 81.8676 214.627C81.8732 214.629 81.8787 214.631 81.8843 214.633C96.1152 211.188 111.343 209.076 127.209 208.53C106.658 207.822 85.6866 209.737 65.4648 214.633C65.4592 214.631 65.4536 214.629 65.448 214.627C55.9553 216.924 46.9072 219.814 38.4074 223.228C38.4018 223.236 38.3958 223.243 38.3902 223.251C31.2092 226.138 24.4163 229.394 18.0848 232.988C17.3688 233.394 17.0297 234.058 17.0014 234.73C16.9612 235.855 17.7839 236.997 19.1629 236.997H35.5825C33.3799 236.997 32.5866 234.076 34.5043 232.988Z" fill="#FFB181"/>
</g>
</svg>
