<svg width="103" height="85" viewBox="0 0 103 85" fill="none" xmlns="http://www.w3.org/2000/svg">
<g clip-path="url(#clip0_1_728)">
<path d="M0 61.1131H29.1997C42.2951 61.1131 50.5592 54.2522 50.5592 43.622V43.5373C50.5592 35.5329 43.9903 29.4766 35.6415 29.0531V28.7566C42.5918 27.8673 47.8892 22.3616 47.8892 15.4583V15.3736C47.8892 5.8445 40.5575 0 28.4369 0H0V61.1131ZM24.326 10.969C29.5811 10.969 32.7173 13.5101 32.7173 17.7453V17.83C32.7173 22.4039 29.4116 25.1144 23.1818 25.1144H15.5534V10.969H24.326ZM24.326 34.8976C31.1492 34.8976 34.7515 37.5657 34.7515 42.4361V42.5209C34.7515 47.476 31.1492 50.1441 24.7922 50.1441H15.5534V34.8976H24.326Z" fill="white"/>
<path d="M37.0417 8.638H11.8714V25.5515H37.0417V8.638Z" fill="white"/>
<path d="M50.6201 61.1131H66.1735V40.0645H74.0986L84.6088 61.1131H102.069L89.8215 37.7351C96.1785 34.9823 100.247 28.2061 100.247 20.371V20.2863C100.247 7.3268 91.8981 0 77.1075 0H50.6201V61.1131ZM66.1735 28.799V11.7314H75.2852C80.7522 11.7314 84.3969 15.1195 84.3969 20.244V20.3287C84.3969 25.4956 80.8793 28.799 75.37 28.799H66.1735Z" fill="#55E748"/>
<path d="M87.7568 8.638H62.5866V32.4903H87.7568V8.638Z" fill="#55E748"/>
<path d="M65.39 13.9419C65.5785 13.9419 65.7491 14.0183 65.8726 14.1418C65.9961 14.2653 66.0725 14.4359 66.0725 14.6244V19.1604C66.0725 19.3489 65.9961 19.5195 65.8726 19.6431C65.7491 19.7666 65.5785 19.843 65.39 19.843H29.1775C28.989 19.843 28.8184 19.7666 28.6949 19.6431C28.5714 19.5195 28.495 19.3489 28.495 19.1604V14.6244C28.495 14.4359 28.5714 14.2653 28.6949 14.1418C28.8184 14.0183 28.989 13.9419 29.1775 13.9419H65.39Z" fill="#0A0A0A" stroke="#0A0A0A" stroke-width="0.68253"/>
<path d="M78.7066 11.4989C79.2255 11.4994 79.6915 11.7114 80.0285 12.0541C80.3689 12.4004 80.5775 12.8794 80.5781 13.4079V20.1688C80.5776 20.6971 80.3698 21.1757 80.0328 21.522C79.699 21.8651 79.2383 22.0783 78.7292 22.0789C78.5237 22.0789 78.3496 22.0044 78.2243 21.879C78.1008 21.7555 78.0244 21.5849 78.0244 21.3964V12.1814C78.0244 11.993 78.1008 11.8223 78.2243 11.6988C78.3478 11.5753 78.5184 11.4989 78.7066 11.4989Z" fill="#0A0A0A" stroke="#0A0A0A" stroke-width="0.68253"/>
<path d="M72.8594 6.19888C73.3808 6.19955 73.8523 6.41904 74.1939 6.77197C74.5394 7.12888 74.7523 7.62198 74.7528 8.16595L74.7528 25.4116C74.7523 25.9558 74.5394 26.4489 74.1939 26.8059C73.8523 27.1588 73.3808 27.3783 72.8598 27.3789H69.6453C69.4568 27.3789 69.2862 27.3026 69.1627 27.179C69.0392 27.0555 68.9628 26.8849 68.9628 26.6964V6.88141C68.9628 6.69294 69.0392 6.52231 69.1627 6.39879C69.2862 6.27528 69.4568 6.19888 69.6453 6.19888L72.8594 6.19888Z" fill="#0A0A0A" stroke="#0A0A0A" stroke-width="0.68253"/>
<path d="M24.8967 6.19888C25.0852 6.19888 25.2558 6.27528 25.3793 6.39879C25.5029 6.52231 25.5792 6.69294 25.5792 6.88141V26.6964C25.5792 26.8849 25.5029 27.0555 25.3793 27.179C25.2558 27.3026 25.0852 27.3789 24.8967 27.3789H21.6956C21.1763 27.3784 20.7067 27.1591 20.3665 26.8065C20.022 26.4494 19.8097 25.956 19.8092 25.4119V8.16625C19.8097 7.62185 20.0219 7.1286 20.3664 6.77159C20.7067 6.41896 21.1763 6.19955 21.6953 6.19888H24.8967Z" fill="#0A0A0A" stroke="#0A0A0A" stroke-width="0.68253"/>
<path d="M16.4892 11.4989C16.6858 11.4989 16.8619 11.5745 16.9887 11.699C17.1143 11.8222 17.1909 11.9929 17.1909 12.1814V21.3964C17.1909 21.5849 17.1145 21.7555 16.991 21.879C16.8675 22.0025 16.6968 22.0789 16.5088 22.0789C15.9844 22.0783 15.524 21.866 15.1908 21.5224C14.8548 21.1759 14.6476 20.6973 14.6471 20.1691L14.6471 13.4087C14.6477 12.8803 14.855 12.4015 15.1911 12.055C15.5235 11.7124 15.9822 11.4994 16.4892 11.4989Z" fill="#0A0A0A" stroke="#0A0A0A" stroke-width="0.68253"/>
<path d="M13.3404 79.9197C13.3404 80.8127 13.0694 81.6072 12.5275 82.303C11.9857 82.9988 11.2094 83.5309 10.1988 83.8994C9.38654 84.2029 8.44307 84.4105 7.3684 84.5222C6.29372 84.6339 5.11644 84.6898 3.83654 84.6898C3.14714 84.6898 2.42591 84.6793 1.67286 84.6583C0.919814 84.6373 0.362194 84.6211 0 84.6097C0.0133782 83.3036 0.0239949 81.9705 0.03185 80.6105C0.0397051 79.2504 0.0436327 77.7913 0.0436327 76.233C0.0436327 74.5237 0.0363605 72.8552 0.0218163 71.2274C0.00727211 69.5995 0 68.7423 0 68.6557C0.137096 68.6511 0.573637 68.6337 1.30962 68.6036C2.04561 68.5735 2.83882 68.5584 3.68926 68.5584C4.96633 68.5584 6.02882 68.5941 6.87675 68.6656C7.72467 68.737 8.49622 68.8787 9.19139 69.0906C10.0655 69.367 10.7577 69.7905 11.2679 70.3609C11.7781 70.9314 12.0332 71.631 12.0332 72.4598C12.0332 73.2151 11.815 73.9025 11.3785 74.5221C10.9419 75.1417 10.3616 75.5981 9.63729 75.8911V75.9848C10.0946 76.043 10.5217 76.1544 10.9187 76.319C11.3156 76.4836 11.6709 76.7061 11.9846 76.9864C12.4445 77.3428 12.7854 77.7626 13.0074 78.2456C13.2294 78.7287 13.3404 79.2867 13.3404 79.9197ZM9.34144 79.4841C9.34144 79.1191 9.2716 78.8002 9.13193 78.5274C8.99225 78.2546 8.79796 78.0086 8.54905 77.7895C8.33967 77.6012 8.05894 77.4483 7.70687 77.3309C7.3548 77.2135 6.97337 77.1549 6.56257 77.1549C6.24812 77.1549 5.98933 77.1588 5.78621 77.1668C5.58308 77.1748 5.45697 77.1788 5.40787 77.1788L5.07685 75.6569C5.49195 75.6445 5.87985 75.5842 6.24057 75.4762C6.60129 75.3681 6.90359 75.225 7.14747 75.0469C7.41295 74.8492 7.62884 74.6038 7.79515 74.3107C7.96146 74.0177 8.04461 73.6624 8.04461 73.245C8.04461 72.8829 7.95222 72.5504 7.76744 72.2474C7.58266 71.9445 7.32844 71.7084 7.00479 71.5391C6.73035 71.3993 6.40707 71.297 6.03493 71.2323C5.66279 71.1676 5.26967 71.1352 4.85556 71.1352C4.6458 71.1352 4.42902 71.1395 4.20521 71.148C3.9814 71.1565 3.82801 71.1608 3.74504 71.1608C3.73167 71.9697 3.72215 72.864 3.71651 73.8437C3.71086 74.8235 3.70804 75.6924 3.70804 76.4505C3.70804 77.2293 3.71224 78.3064 3.72065 79.6817C3.72906 81.0571 3.73326 81.7977 3.73326 81.9037C3.8463 81.9081 4.01405 81.9164 4.23651 81.9283C4.45897 81.9403 4.71227 81.9462 4.9964 81.9462C5.60468 81.9462 6.19393 81.9113 6.76417 81.8416C7.3344 81.7718 7.81031 81.632 8.19189 81.4221C8.55372 81.2301 8.83577 80.9668 9.03803 80.6321C9.2403 80.2973 9.34144 79.9147 9.34144 79.4841Z" fill="white"/>
<path d="M18.9247 84.6898H15.2018C15.206 84.0199 15.214 83.0512 15.2258 81.7837C15.2376 80.5162 15.2435 78.7958 15.2435 76.6225C15.2435 75.7075 15.2397 74.5511 15.2322 73.1534C15.2247 71.7556 15.2146 70.3274 15.2018 68.8686H18.9247C18.9161 69.9474 18.9071 71.1906 18.8974 72.5983C18.8878 74.006 18.883 75.2556 18.883 76.3472C18.883 78.5785 18.8889 80.3032 18.9006 81.5212C18.9123 82.7393 18.9204 83.7955 18.9247 84.6898Z" fill="white"/>
<path d="M35.3675 76.3222C35.3583 76.9199 35.3484 77.5878 35.3376 78.3258C35.3268 79.0637 35.3214 79.7013 35.3214 80.2384C35.3214 80.9863 35.3268 81.7358 35.3376 82.487C35.3484 83.2381 35.3538 83.9255 35.3538 84.5493C35.2542 84.5708 34.8884 84.5996 34.2562 84.6357C33.6241 84.6718 33.0868 84.6898 32.6443 84.6898C30.8381 84.6898 29.214 84.5051 27.7721 84.1357C26.3301 83.7663 24.9993 83.1086 23.7795 82.1626C22.9674 81.538 22.3172 80.7563 21.8289 79.8176C21.3406 78.8789 21.0964 77.808 21.0964 76.6048C21.0964 75.2767 21.4338 74.0874 22.1088 73.037C22.7837 71.9866 23.7432 71.1064 24.9874 70.3962C25.9932 69.8045 27.181 69.3502 28.5509 69.0335C29.9207 68.7168 31.4363 68.5584 33.0976 68.5584C33.301 68.5584 33.4843 68.5604 33.6476 68.5643C33.8109 68.5682 33.9691 68.5702 34.1222 68.5702L34.5613 71.848C34.481 71.848 34.3367 71.8469 34.1283 71.8446C33.92 71.8423 33.7237 71.8412 33.5395 71.8412C32.713 71.8412 31.8396 71.9079 30.9191 72.0413C29.9987 72.1747 29.169 72.3907 28.4302 72.6893C27.4195 73.0923 26.6247 73.6653 26.0456 74.4084C25.4666 75.1514 25.1771 75.9646 25.1771 76.8479C25.1771 77.8368 25.4078 78.6656 25.8693 79.3343C26.3308 80.003 26.9175 80.527 27.6295 80.9065C28.1858 81.1969 28.8024 81.4197 29.4793 81.5749C30.1562 81.73 30.8545 81.8212 31.5741 81.8484C31.5741 81.7019 31.5718 81.172 31.5672 80.2585C31.5627 79.345 31.5502 78.0329 31.5297 76.3222H35.3675Z" fill="white"/>
<path d="M54.6024 83.7837L53.1008 85C52.9246 84.8189 52.2999 84.136 51.2267 82.9511C50.1535 81.7662 48.4997 79.9181 46.2652 77.4067L46.2773 77.3004C46.5816 77.2217 46.986 77.0504 47.4906 76.7867C47.9951 76.523 48.4196 76.2376 48.764 75.9305C49.0603 75.6628 49.3186 75.3322 49.5388 74.9386C49.7591 74.5449 49.8692 74.0174 49.8692 73.3561C49.8692 72.7499 49.707 72.2283 49.3827 71.7914C49.0583 71.3545 48.6118 71.0336 48.0432 70.8289C47.5787 70.6557 47.0902 70.5514 46.5776 70.516C46.065 70.4806 45.5925 70.4629 45.16 70.4629C44.8717 70.4629 44.6515 70.4648 44.4993 70.4688C44.3471 70.4727 44.235 70.4747 44.1629 70.4747C44.1469 71.9705 44.1369 73.2892 44.1329 74.4308C44.1289 75.5723 44.1269 76.3793 44.1269 76.8516C44.1269 77.9302 44.1329 79.3946 44.1449 81.2447C44.1569 83.0948 44.1669 84.256 44.1749 84.7284H42.1928C42.2008 84.256 42.2128 83.3408 42.2288 81.9827C42.2448 80.6247 42.2528 78.934 42.2528 76.9107C42.2528 76.517 42.2528 75.7888 42.2528 74.726C42.2528 73.6632 42.2328 71.7264 42.1928 68.9159C42.2729 68.9159 42.6733 68.908 43.3941 68.8922C44.1149 68.8765 44.7796 68.8686 45.3883 68.8686C46.085 68.8686 46.7618 68.908 47.4185 68.9867C48.0752 69.0654 48.7159 69.2347 49.3406 69.4945C50.1335 69.8252 50.7622 70.3113 51.2267 70.9529C51.6912 71.5946 51.9235 72.3484 51.9235 73.2144C51.9235 74.3323 51.5731 75.2633 50.8723 76.0073C50.1715 76.7513 49.5088 77.3043 48.8841 77.6665V77.7255C49.9813 78.9852 51.1847 80.2842 52.4941 81.6226C53.8035 82.9609 54.5063 83.6813 54.6024 83.7837Z" fill="#55E740"/>
<path d="M69.494 84.0503L67.6381 85C67.6064 84.9129 67.3586 84.3233 66.8946 83.2312C66.4306 82.139 65.818 80.7343 65.0566 79.0169H57.9425C57.1098 80.8609 56.4674 82.2894 56.0153 83.3024C55.5632 84.3154 55.3134 84.8813 55.2658 85L53.6717 84.1453C53.8779 83.7337 54.7285 81.9194 56.2235 78.7023C57.7185 75.4852 59.271 72.1039 60.8809 68.5584H62.4275C64.0137 72.1039 65.5721 75.5387 67.1028 78.8626C68.6335 82.1865 69.4305 83.9158 69.494 84.0503ZM64.3785 77.4974C63.9502 76.5319 63.4982 75.5228 63.0223 74.4703C62.5464 73.4177 62.0468 72.3176 61.5233 71.1701H61.4758C61.0713 72.0406 60.5835 73.111 60.0125 74.3812C59.4415 75.6514 58.9696 76.6902 58.5968 77.4974L58.6087 77.5093H64.3666L64.3785 77.4974Z" fill="#55E740"/>
<path d="M89.6596 84.3119L87.7291 84.6898L85.2892 71.428H85.2655C84.9576 72.0657 84.2746 73.5458 83.2165 75.8683C82.1585 78.1908 81.128 80.5211 80.1253 82.8594H78.4908C77.5512 80.6943 76.5128 78.3541 75.3758 75.8388C74.2388 73.3234 73.5716 71.8571 73.3742 71.4398H73.3505C73.3031 71.6445 72.9833 73.1502 72.3912 75.9569C71.799 78.7635 71.2344 81.6666 70.6975 84.6662L68.8735 84.3355C69.6631 80.9423 70.4014 77.5806 71.0883 74.2504C71.7753 70.9202 72.1503 69.1134 72.2135 68.83L74.0967 68.5584C74.1756 68.7395 74.7343 70.007 75.7726 72.361C76.8109 74.7149 78.0328 77.4271 79.4383 80.4975H79.5094C80.5832 78.0884 81.7202 75.5219 82.9204 72.7979C84.1206 70.0739 84.7444 68.6607 84.7918 68.5584L86.5802 68.7001C86.6039 68.8733 86.9316 70.5994 87.5633 73.8784C88.1949 77.1575 88.8937 80.6353 89.6596 84.3119Z" fill="#55E740"/>
<path d="M103 69.6007C102.937 69.6796 102.158 70.6627 100.662 72.5498C99.1662 74.4369 97.9617 75.9608 97.0485 77.1215C97.0328 78.5507 97.0347 80.0509 97.0544 81.6222C97.0741 83.1935 97.0879 84.216 97.0958 84.6898H95.1474C95.1631 84.216 95.1789 83.1797 95.1946 81.5808C95.2103 79.9818 95.2143 78.5428 95.2064 77.2637C94.246 75.9924 93.0573 74.4547 91.6402 72.6505C90.2232 70.8462 89.4596 69.877 89.3494 69.7428L90.9081 68.5584C91.0105 68.6926 91.6284 69.5217 92.762 71.0456C93.8957 72.5695 95.0371 74.0816 96.1865 75.5818H96.2101C97.3201 74.1527 98.4833 72.6465 99.6995 71.0634C100.916 69.4802 101.555 68.6453 101.618 68.5584L103 69.6007Z" fill="#55E740"/>
</g>
<defs>
<clipPath id="clip0_1_728">
<rect width="103" height="85" fill="white"/>
</clipPath>
</defs>
</svg>
